<?xml version="1.0" encoding="UTF-8" standalone="no"?>
<svg
   xmlns:dc="http://purl.org/dc/elements/1.1/"
   xmlns:cc="http://creativecommons.org/ns#"
   xmlns:rdf="http://www.w3.org/1999/02/22-rdf-syntax-ns#"
   xmlns:svg="http://www.w3.org/2000/svg"
   xmlns="http://www.w3.org/2000/svg"
   viewBox="0 0 378.66666 276"
   height="276"
   width="378.66666"
   xml:space="preserve"
   id="svg2"
   version="1.1"><metadata
     id="metadata8"><rdf:RDF><cc:Work
         rdf:about=""><dc:format>image/svg+xml</dc:format><dc:type
           rdf:resource="http://purl.org/dc/dcmitype/StillImage" /></cc:Work></rdf:RDF></metadata><defs
     id="defs6" /><g
     transform="matrix(1.3333333,0,0,-1.3333333,0,276)"
     id="g10"><g
       transform="scale(0.1)"
       id="g12"><path
         id="path14"
         style="fill:#4c99ab;fill-opacity:1;fill-rule:evenodd;stroke:none"
         d="M 2122.73,1438.01 H 1373.24 L 1302.73,1315 h 749.5 l 70.5,123.01 m -327.5,-298.52 h -593.98 l 70.51,123.01 h 593.98 l -70.51,-123.01" /><path
         id="path16"
         style="fill:#829ca8;fill-opacity:1;fill-rule:evenodd;stroke:none"
         d="m 1144.26,1139.49 274.49,475 -71.02,122.5 -344.49,-597.5 h 141.02 m -346.022,0 448.012,773.01 70.98,-122.5 -375,-650.51 H 798.238" /><path
         id="path18"
         style="fill:#26617d;fill-opacity:1;fill-rule:evenodd;stroke:none"
         d="m 1212.73,2069.49 336.02,-581.99 141.48,0.51 -335.97,581.99 -141.53,-0.51 m 380.51,-61.01 300,-520.47 -141.48,-0.51 -300,520.51 141.48,0.47" /><path
         id="path20"
         style="fill:#27617e;fill-opacity:1;fill-rule:nonzero;stroke:none"
         d="M 427.969,680.27 558.75,959.648 689.84,680.27 c 15.082,-31.989 27.43,-56.168 37.039,-72.5 9.68,-16.25 19.141,-29.02 28.43,-38.282 h -94.688 c 1.879,7.582 0.859,19.461 -2.961,35.633 -3.75,16.25 -9.691,33.899 -17.82,52.969 l -12.649,29.531 H 485.469 l -1.719,-5.633 c -9.691,-22.609 -17.148,-44.84 -22.34,-66.718 -5.238,-21.79 -6.68,-37.032 -4.379,-45.782 h -96.09 c 10.387,10.391 20.508,23.75 30.309,40 9.77,16.332 22.031,39.922 36.719,70.782 z M 556.25,851.988 506.719,736.52 H 606.09 Z M 854.449,563.551 c -25.929,0 -45.898,5.551 -59.84,16.57 -13.988,11.129 -20.937,26.949 -20.937,47.5 0,13.629 4.879,26.438 14.687,38.43 9.879,12.07 23.2,21.648 40,28.75 l 78.121,32.187 v 24.223 c 0,14.449 -4.492,25.98 -13.429,34.527 -8.992,8.524 -21.063,12.813 -36.25,12.813 -9.692,0 -19.141,-1.672 -28.281,-5 -9.071,-3.352 -19.071,-8.86 -30,-16.563 l 14.679,51.102 c 10.391,4.371 20.473,7.531 30.16,9.531 9.762,2.07 19.731,3.117 29.84,3.117 28.641,0 50.16,-7.5 64.531,-22.5 14.461,-15 21.719,-37.34 21.719,-67.027 V 647.148 c 0,-22.187 0.672,-38.988 2.031,-50.308 1.329,-11.25 3.829,-20.391 7.5,-27.352 h -62.5 v 25.473 L 865.23,564.18 Z m 52.031,46.25 v 72.969 h -68.429 c -1.68,0 -3.75,-4.961 -6.25,-14.84 -2.5,-9.809 -3.75,-18.051 -3.75,-24.692 0,-12.5 4.058,-21.949 12.179,-28.277 8.129,-6.25 20.36,-9.371 36.719,-9.371 10,0 19.61,1.398 28.91,4.211 z" /><path
         id="path22"
         style="fill:#27617e;fill-opacity:1;fill-rule:nonzero;stroke:none"
         d="m 1118.05,563.551 c -32.74,0 -58.67,10.238 -77.82,30.789 -19.06,20.5 -28.59,48.281 -28.59,83.281 0,46.758 13.2,85.617 39.69,116.559 26.44,31.019 59.61,46.558 99.53,46.558 10.7,0 20.7,-1.476 30,-4.367 v 20.777 c 0,17.192 -0.86,31.442 -2.5,42.813 -1.56,11.449 -4.49,23.051 -8.75,34.84 l 37.03,7.5 37.5,7.82 c -3.98,-10.742 -6.68,-23.562 -8.12,-38.441 -1.49,-14.801 -2.19,-35.59 -2.19,-62.34 V 647.148 c 0,-20.738 0.82,-36.796 2.5,-48.128 1.76,-11.25 4.72,-21.09 8.9,-29.532 h -64.37 v 36.102 l -31.56,-35.629 c -12.19,-4.371 -22.62,-6.481 -31.25,-6.41 z m 14.68,239.539 c -23.67,0 -40.7,-8.051 -51.09,-24.07 -10.43,-15.93 -15.62,-42.11 -15.62,-78.43 0,-28.988 6.28,-52 18.9,-69.07 12.7,-16.989 29.77,-25.469 51.25,-25.469 10.39,0 20.08,1.961 29.06,5.937 l 15.63,8.282 v 167.5 c -12.42,10.199 -28.44,15.32 -48.13,15.32 z" /><path
         id="path24"
         style="fill:#27617e;fill-opacity:1;fill-rule:nonzero;stroke:none"
         d="m 1299.73,647.148 v 110.153 c 0,14.258 -0.86,27.078 -2.5,38.437 -1.57,11.453 -4.5,24.461 -8.75,39.063 h 75.78 c -4.3,-8.43 -7.31,-18.391 -9.06,-29.84 -1.68,-11.371 -2.5,-27.262 -2.5,-47.66 V 647.148 c 0,-20.738 0.82,-36.796 2.5,-48.128 1.75,-11.25 4.76,-21.09 9.06,-29.532 h -75.78 c 4.25,8.133 7.18,17.891 8.75,29.383 1.64,11.328 2.5,27.418 2.5,48.277 z m 25.15,298.59 c 9.89,0 18.28,-4.019 25.16,-12.027 6.95,-7.93 10.47,-17.66 10.47,-29.223 0,-11.558 -3.52,-21.328 -10.47,-29.218 -6.88,-7.93 -15.27,-11.872 -25.16,-11.872 -9.92,0 -18.36,3.942 -25.31,11.872 -6.87,7.89 -10.31,17.66 -10.31,29.218 0,11.563 3.44,21.293 10.31,29.223 6.95,8.008 15.39,12.027 25.31,12.027 z" /><path
         id="path26"
         style="fill:#27617e;fill-opacity:1;fill-rule:nonzero;stroke:none"
         d="m 1485.94,563.551 c -20.86,0 -36.02,6.179 -45.47,18.597 -9.49,12.383 -14.22,32.192 -14.22,59.372 v 156.718 h -37.66 l 90.32,95.16 h 0.31 v -58.597 h 61.72 v -36.563 h -61.72 V 663.711 c 0,-17.93 3.01,-31.332 9.06,-40.16 6.13,-8.86 15.31,-13.281 27.5,-13.281 7.5,0 14.38,0.859 20.63,2.66 6.25,1.761 13.79,4.922 22.65,9.531 l -21.09,-50.941 c -9.3,-3.122 -17.42,-5.192 -24.38,-6.25 -6.87,-1.129 -16.09,-1.719 -27.65,-1.719 z" /><path
         id="path28"
         style="fill:#27617e;fill-opacity:1;fill-rule:nonzero;stroke:none"
         d="m 1743.4,569.488 c 4.76,16.961 8.16,33.602 10.15,49.852 1.96,16.25 2.97,36.558 2.97,60.93 v 160.941 c 0,23.949 -1.01,44.059 -2.97,60.309 -1.99,16.25 -5.46,33.05 -10.46,50.468 h 84.68 c -4.92,-17.109 -8.36,-33.75 -10.31,-50 -1.87,-16.168 -2.81,-36.398 -2.81,-60.777 V 611.988 c 28.75,1.133 52.89,3.481 72.5,7.032 29.57,5.39 55.86,14.609 78.9,27.66 l -15.93,-38.59 -16.1,-38.602 z" /><path
         id="path30"
         style="fill:#27617e;fill-opacity:1;fill-rule:nonzero;stroke:none"
         d="m 2010.66,647.148 v 110.153 c 0,14.258 -0.86,27.078 -2.5,38.437 -1.56,11.453 -4.49,24.461 -8.75,39.063 h 75.79 c -4.3,-8.43 -7.31,-18.391 -9.07,-29.84 -1.68,-11.371 -2.5,-27.262 -2.5,-47.66 V 647.148 c 0,-20.738 0.82,-36.796 2.5,-48.128 1.76,-11.25 4.77,-21.09 9.07,-29.532 h -75.79 c 4.26,8.133 7.19,17.891 8.75,29.383 1.64,11.328 2.5,27.418 2.5,48.277 z m 25.16,298.59 c 9.88,0 18.28,-4.019 25.16,-12.027 6.95,-7.93 10.47,-17.66 10.47,-29.223 0,-11.558 -3.52,-21.328 -10.47,-29.218 -6.88,-7.93 -15.28,-11.872 -25.16,-11.872 -9.92,0 -18.36,3.942 -25.31,11.872 -6.88,7.89 -10.31,17.66 -10.31,29.218 0,11.563 3.43,21.293 10.31,29.223 6.95,8.008 15.39,12.027 25.31,12.027 z" /><path
         id="path32"
         style="fill:#27617e;fill-opacity:1;fill-rule:nonzero;stroke:none"
         d="m 2199.69,798.238 v -151.09 c 0,-20.738 0.82,-36.796 2.5,-48.128 1.64,-11.25 4.61,-21.09 8.9,-29.532 h -75.62 c 4.14,8.133 7.07,17.852 8.75,29.223 1.64,11.449 2.5,27.578 2.5,48.437 v 151.09 h -28.91 v 0.782 l 19.38,35.781 h 9.53 v 21.25 c 0,30.078 7.85,53.519 23.59,70.32 15.82,16.75 37.97,25.149 66.41,25.149 9.88,0 18.67,-0.622 26.4,-1.872 7.82,-1.168 15.67,-3.199 23.6,-6.097 l -12.34,-52.5 c -6.88,7.82 -13.44,13.519 -19.69,17.187 -6.17,3.641 -12.58,5.473 -19.22,5.473 -11.99,0 -20.94,-3.711 -26.88,-11.09 -5.93,-7.422 -8.9,-18.601 -8.9,-33.601 v -34.219 h 53.12 v -36.563 z" /><path
         id="path34"
         style="fill:#27617e;fill-opacity:1;fill-rule:nonzero;stroke:none"
         d="m 2396.91,563.551 c -36.68,0 -66.71,12.23 -90.15,36.719 -23.44,24.57 -35.16,56.101 -35.16,94.531 0,41.758 10.31,76.488 30.94,104.219 20.62,27.82 46.41,41.718 77.34,41.718 h 0.47 c 30.2,0 53.48,-10.539 69.85,-31.558 16.32,-20.942 24.53,-50.899 24.53,-89.84 v -23.91 h -146.88 c 2.58,-24.059 9.57,-44.059 20.94,-60 14.45,-20.231 34.14,-30.309 59.06,-30.309 11.25,0 22.27,1.438 33.13,4.367 10.93,2.891 20.82,7.071 29.68,12.5 l -21.09,-50.777 c -11.56,-3.121 -20.9,-5.16 -27.97,-6.09 -6.99,-1.019 -15.23,-1.57 -24.69,-1.57 z m 34.38,168.75 c -0.12,23.129 -4.38,40.789 -12.81,52.969 -8.36,12.191 -20.59,18.281 -36.72,18.281 h 0.31 c -17.62,0 -31.21,-7.461 -40.78,-22.34 -7.74,-12.109 -12.34,-28.402 -13.91,-48.91 z" /><path
         id="path36"
         style="fill:#849daa;fill-opacity:1;fill-rule:nonzero;stroke:none"
         d="M 79.4102,68.0117 28.9492,258.16 C 22.8906,280.43 17.7305,297.27 13.4805,308.629 9.17969,319.961 4.73047,329.02 0.0390625,335.82 H 65.5117 c -3.0508,-6.8 -4.5312,-15.859 -4.5312,-27.191 0.0703,-11.359 1.7187,-22.969 4.8398,-34.84 l 32.1914,-130 64.6873,197.34 64.063,-196.719 32.648,129.379 c 3.012,10.82 4.57,22.231 4.692,34.223 0.078,12.066 -1.332,21.328 -4.223,27.808 h 65.633 c -4.492,-6.679 -8.871,-15.699 -13.133,-27.031 -4.18,-11.25 -9.328,-28.129 -15.469,-50.629 L 246.129,68.0117 h -32.5 L 161.91,221.762 111.91,68.0117 Z M 427.031,63.9492 c -25.621,0 -46.679,8.5117 -63.121,25.6211 -16.371,17.1917 -24.531,39.2187 -24.531,66.0897 0,29.262 7.18,53.602 21.562,72.969 14.45,19.461 32.539,29.223 54.219,29.223 h 0.309 c 21.133,0 37.422,-7.34 48.91,-22.032 11.441,-14.691 17.18,-35.621 17.18,-62.808 V 156.129 H 378.75 c 1.762,-16.789 6.641,-30.777 14.691,-42.027 10.079,-14.063 23.899,-21.0903 41.399,-21.0903 7.82,0 15.512,0.9688 23.129,2.9688 7.691,2.0703 14.609,4.9995 20.781,8.7495 L 464.059,69.2617 c -8.118,-2.1914 -14.68,-3.6015 -19.68,-4.2226 -4.93,-0.6993 -10.707,-1.0899 -17.348,-1.0899 z M 451.25,182.07 c -0.23,16.129 -3.238,28.481 -9.059,37.032 -5.863,8.519 -14.382,12.808 -25.632,12.808 h 0.16 c -12.418,0 -21.949,-5.269 -28.598,-15.781 -5.312,-8.43 -8.551,-19.801 -9.68,-34.059 z" /><path
         id="path38"
         style="fill:#849daa;fill-opacity:1;fill-rule:nonzero;stroke:none"
         d="m 519.262,122.379 v 146.883 c 0,12.066 -0.59,22.109 -1.723,30.148 -1.168,8.012 -3.238,16.102 -6.25,24.219 l 26.563,5.32 26.41,5.461 c -2.934,-8.43 -5,-17.89 -6.25,-28.281 -1.172,-10.309 -1.723,-24.449 -1.723,-42.34 v -141.41 c 0,-14.488 0.551,-25.6993 1.723,-33.5899 1.25,-7.9297 3.316,-14.8399 6.25,-20.7774 h -52.973 c 3.012,5.6992 5.082,12.5391 6.25,20.4688 1.133,8 1.723,19.2895 1.723,33.8985 z" /><path
         id="path40"
         style="fill:#849daa;fill-opacity:1;fill-rule:nonzero;stroke:none"
         d="m 603.32,122.379 v 146.883 c 0,12.066 -0.59,22.109 -1.718,30.148 -1.172,8.012 -3.243,16.102 -6.25,24.219 l 26.558,5.32 26.41,5.461 c -2.929,-8.43 -5,-17.89 -6.25,-28.281 -1.172,-10.309 -1.718,-24.449 -1.718,-42.34 v -141.41 c 0,-14.488 0.546,-25.6993 1.718,-33.5899 1.25,-7.9297 3.321,-14.8399 6.25,-20.7774 h -52.968 c 3.007,5.6992 5.078,12.5391 6.25,20.4688 1.128,8 1.718,19.2895 1.718,33.8985 z" /><path
         id="path42"
         style="fill:#849daa;fill-opacity:1;fill-rule:nonzero;stroke:none"
         d="m 687.578,122.379 v 77.031 c 0,10.078 -0.59,19.141 -1.719,27.192 -1.168,8.007 -3.238,17.07 -6.25,27.187 h 45 v -32.34 l 28.282,32.5 c 9.449,2.571 17.418,3.903 23.91,3.903 16.871,0 29.679,-5.274 38.429,-15.782 8.75,-10.55 13.129,-25.898 13.129,-46.09 v -73.601 c 0,-15.539 0.469,-27.2579 1.411,-35.1485 1.011,-7.9297 2.808,-14.3399 5.308,-19.2188 h -51.719 c 3.012,5.6992 5.082,12.5391 6.25,20.4688 1.129,8 1.719,19.2895 1.719,33.8985 v 68.441 c 0,10.821 -2.578,18.91 -7.656,24.219 -5,5.313 -12.652,7.973 -22.973,7.973 -7.109,0 -16.32,-2.621 -27.648,-7.813 l -8.442,-3.75 v -89.07 c 0,-14.488 0.551,-25.6993 1.719,-33.5899 1.25,-7.9297 3.32,-14.8399 6.25,-20.7774 h -52.969 c 3.012,5.6992 5.082,12.5391 6.25,20.4688 1.129,8 1.719,19.2895 1.719,33.8985 z" /><path
         id="path44"
         style="fill:#849daa;fill-opacity:1;fill-rule:nonzero;stroke:none"
         d="m 950.66,63.9492 c -25.621,0 -46.68,8.5117 -63.121,25.6211 -16.367,17.1917 -24.527,39.2187 -24.527,66.0897 0,29.262 7.187,53.602 21.558,72.969 14.45,19.461 32.539,29.223 54.219,29.223 h 0.313 c 21.128,0 37.418,-7.34 48.91,-22.032 11.437,-14.691 17.188,-35.621 17.188,-62.808 V 156.129 H 902.379 c 1.762,-16.789 6.641,-30.777 14.691,-42.027 10.078,-14.063 23.91,-21.0903 41.41,-21.0903 7.809,0 15.5,0.9688 23.122,2.9688 7.699,2.0703 14.609,4.9995 20.778,8.7495 L 987.699,69.2617 C 979.57,67.0703 973.012,65.6602 968.012,65.0391 963.09,64.3398 957.301,63.9492 950.66,63.9492 Z M 974.879,182.07 c -0.231,16.129 -3.238,28.481 -9.059,37.032 -5.859,8.519 -14.371,12.808 -25.621,12.808 h 0.153 c -12.422,0 -21.954,-5.269 -28.59,-15.781 -5.313,-8.43 -8.563,-19.801 -9.692,-34.059 z" /><path
         id="path46"
         style="fill:#849daa;fill-opacity:1;fill-rule:nonzero;stroke:none"
         d="m 1128.2,214.102 c -5.23,6.128 -10.58,10.628 -16.09,13.437 -5.43,2.891 -11.49,4.371 -18.13,4.371 -7.42,0 -13.59,-1.949 -18.59,-5.781 -4.92,-3.859 -7.34,-8.707 -7.34,-14.527 0,-5.743 1.64,-10.903 5,-15.473 3.2,-4.488 9.29,-10.231 18.28,-17.18 15.19,-11.801 25.86,-22.109 32.03,-30.937 6.02,-8.75 9.06,-18.282 9.06,-28.602 0,-15.93 -5.58,-29.1795 -16.72,-39.6795 -11.17,-10.5508 -25.11,-15.7813 -41.87,-15.7813 -9.3,0 -17.19,0.5821 -23.75,1.711 -6.56,1.0586 -14.65,3.0507 -24.22,6.1015 V 115.98 c 7.19,-8.679 14.37,-15.121 21.56,-19.3784 7.19,-4.1797 14.53,-6.25 22.03,-6.25 7.27,0 13.32,2.1093 18.13,6.4101 4.76,4.2583 7.19,9.6873 7.19,16.2503 0,5.187 -1.96,10.226 -5.79,15.148 -3.75,4.77 -11.05,11.328 -21.87,19.692 -13.67,10.628 -23.28,20.199 -28.91,28.75 -5.43,8.32 -8.12,17.699 -8.12,28.128 0,15.309 6.01,27.969 18.12,37.969 12.19,10.071 27.42,15.153 45.78,15.153 6.64,0 12.43,-0.582 17.35,-1.723 4.88,-1.168 10.51,-3.199 16.87,-6.09 z" /><path
         id="path48"
         style="fill:#849daa;fill-opacity:1;fill-rule:nonzero;stroke:none"
         d="m 1251.25,214.102 c -5.23,6.128 -10.59,10.628 -16.09,13.437 -5.43,2.891 -11.49,4.371 -18.13,4.371 -7.42,0 -13.59,-1.949 -18.59,-5.781 -4.92,-3.859 -7.35,-8.707 -7.35,-14.527 0,-5.743 1.64,-10.903 5,-15.473 3.21,-4.488 9.3,-10.231 18.29,-17.18 15.19,-11.801 25.85,-22.109 32.03,-30.937 6.01,-8.75 9.06,-18.282 9.06,-28.602 0,-15.93 -5.59,-29.1795 -16.72,-39.6795 -11.17,-10.5508 -25.12,-15.7813 -41.87,-15.7813 -9.3,0 -17.19,0.5821 -23.76,1.711 -6.56,1.0586 -14.64,3.0507 -24.21,6.1015 V 115.98 c 7.18,-8.679 14.37,-15.121 21.56,-19.3784 7.19,-4.1797 14.53,-6.25 22.03,-6.25 7.27,0 13.32,2.1093 18.12,6.4101 4.77,4.2583 7.19,9.6873 7.19,16.2503 0,5.187 -1.95,10.226 -5.78,15.148 -3.75,4.77 -11.05,11.328 -21.87,19.692 -13.68,10.628 -23.28,20.199 -28.91,28.75 -5.43,8.32 -8.13,17.699 -8.13,28.128 0,15.309 6.02,27.969 18.13,37.969 12.19,10.071 27.42,15.153 45.78,15.153 6.64,0 12.42,-0.582 17.35,-1.723 4.88,-1.168 10.5,-3.199 16.87,-6.09 z" /><path
         id="path50"
         style="fill:#849daa;fill-opacity:1;fill-rule:nonzero;stroke:none"
         d="m 1530.59,283.012 c -8.05,8.508 -16.06,14.718 -24.07,18.59 -7.93,3.828 -16.68,5.777 -26.25,5.777 -11.17,0 -20.43,-3.399 -27.81,-10.149 -7.3,-6.8 -10.94,-15.242 -10.94,-25.32 0,-8.672 2.86,-16.519 8.6,-23.59 5.5,-6.992 15.54,-15.082 30.15,-24.218 22.07,-14.18 37.66,-27.422 46.72,-39.692 8.95,-12.301 13.44,-26.68 13.44,-43.121 0,-22.187 -7.89,-40.629 -23.59,-55.3085 -15.75,-14.6914 -35.47,-22.0313 -59.22,-22.0313 -11.88,0 -22.03,0.8906 -30.47,2.6524 -8.44,1.6367 -18.28,4.7695 -29.53,9.3789 v 50.1485 c 8.2,-10.309 16.72,-17.891 25.47,-22.649 8.75,-4.6909 18.36,-7.0308 28.9,-7.0308 13.21,0 24.14,3.7498 32.81,11.2498 8.75,7.571 13.13,17.071 13.13,28.43 0,10 -2.97,18.793 -8.91,26.41 -5.86,7.5 -16.25,16.012 -31.25,25.621 -21.68,13.641 -36.87,26.328 -45.62,38.129 -8.75,11.641 -13.13,25.082 -13.13,40.313 0,20.937 7.97,38.359 23.91,52.347 16.02,13.942 36.13,20.93 60.31,20.93 9.69,0 18.28,-0.899 25.78,-2.649 7.58,-1.679 14.77,-4.339 21.57,-7.968 z" /><path
         id="path52"
         style="fill:#849daa;fill-opacity:1;fill-rule:nonzero;stroke:none"
         d="m 1579.34,122.379 v 77.031 c 0,10 -0.59,18.949 -1.72,26.879 -1.17,8.012 -3.24,17.191 -6.25,27.5 h 52.97 c -2.93,-5.937 -5,-12.93 -6.25,-20.937 -1.18,-7.93 -1.72,-19.063 -1.72,-33.442 v -77.031 c 0,-14.488 0.54,-25.6993 1.72,-33.5899 1.25,-7.9297 3.32,-14.8399 6.25,-20.7774 h -52.97 c 3.01,5.6992 5.08,12.5391 6.25,20.4688 1.13,8 1.72,19.2895 1.72,33.8985 z m 17.5,208.91 c 6.95,0 12.85,-2.809 17.65,-8.437 4.89,-5.551 7.35,-12.301 7.35,-20.313 0,-8.129 -2.46,-14.961 -7.35,-20.469 -4.8,-5.55 -10.7,-8.281 -17.65,-8.281 -7,0 -12.93,2.731 -17.82,8.281 -4.8,5.508 -7.18,12.34 -7.18,20.469 0,8.012 2.38,14.762 7.18,20.313 4.89,5.628 10.82,8.437 17.82,8.437 z" /><path
         id="path54"
         style="fill:#849daa;fill-opacity:1;fill-rule:nonzero;stroke:none"
         d="m 1661.09,122.379 v 77.031 c 0,10 -0.58,18.949 -1.71,26.879 -1.18,8.012 -3.21,17.191 -6.1,27.5 h 45 v -35.777 l 23.13,28.75 8.43,5 c 8.01,4.058 17.11,6.09 27.35,6.09 14.69,0 25.86,-4.614 33.59,-13.75 5.82,-6.872 9.38,-16.172 10.63,-27.813 l 27.5,30.781 7.5,4.379 c 8,4.25 16.48,6.403 25.47,6.403 14.37,0 25.31,-4.532 32.81,-13.59 7.58,-8.992 11.4,-22.114 11.4,-39.383 v -82.5 c 0,-15.738 0.39,-27.6095 1.25,-35.6173 0.94,-7.9336 2.58,-14.1836 5,-18.75 h -51.25 c 2.89,5.6992 4.93,12.5391 6.1,20.4688 1.13,8 1.72,19.2895 1.72,33.8985 v 70.941 c 0,10 -2.35,17.418 -7.03,22.34 -4.61,4.891 -11.68,7.352 -21.26,7.352 -8.98,0 -18.74,-3.051 -29.37,-9.063 l -8.91,-5.469 v -86.101 c 0,-14.488 0.55,-25.6993 1.72,-33.5899 1.25,-7.9297 3.32,-14.8399 6.25,-20.7774 h -52.97 c 3.01,5.6992 5.04,12.5391 6.1,20.4688 1.13,8 1.72,19.2895 1.72,33.8985 v 70.781 c 0,10.078 -2.35,17.578 -7.04,22.5 -4.6,4.891 -11.71,7.352 -21.4,7.352 -8.24,0 -18.36,-3.133 -30.31,-9.383 l -8.13,-4.219 v -87.031 c 0,-14.488 0.55,-25.6993 1.72,-33.5899 1.25,-7.9297 3.32,-14.8399 6.25,-20.7774 h -52.97 c 2.89,5.6992 4.92,12.5391 6.1,20.4688 1.13,8 1.71,19.2895 1.71,33.8985 z" /><path
         id="path56"
         style="fill:#849daa;fill-opacity:1;fill-rule:nonzero;stroke:none"
         d="m 1955.2,199.41 c 0,10 -0.59,18.949 -1.72,26.879 -1.18,8.012 -3.21,17.191 -6.1,27.5 h 45 v -32.34 l 25.16,30 4.69,2.34 c 5.93,2.691 13,4.063 21.25,4.063 19.68,0 35.62,-9.18 47.81,-27.5 12.19,-18.364 18.28,-42.192 18.28,-71.563 0,-30.309 -5.78,-53.711 -17.34,-70.1601 -11.57,-16.4805 -28.09,-24.6797 -49.53,-24.6797 -19.3,0.1094 -36.06,6.2813 -50.32,18.5899 V 63.3203 c 0,-9.8789 0.55,-18.789 1.72,-26.7187 1.25,-8.0118 3.32,-17.1914 6.25,-27.50004 h -52.97 c 2.89,10.11724 4.92,19.17974 6.1,27.18754 1.13,7.9297 1.72,16.9492 1.72,27.0312 z m 68.43,-106.0897 c 15.2,0 26.96,5.5078 35.32,16.5587 8.32,11.141 12.5,26.961 12.5,47.5 0,20.199 -4.03,36.172 -12.04,47.973 -8.04,11.757 -18.86,17.66 -32.5,17.66 -6.87,0 -14.64,-1.801 -23.28,-5.313 -3.67,-1.488 -7.42,-3.289 -11.25,-5.469 V 109.879 c 8.44,-11.0509 18.83,-16.5587 31.25,-16.5587 z" /><path
         id="path58"
         style="fill:#849daa;fill-opacity:1;fill-rule:nonzero;stroke:none"
         d="m 2147.58,122.379 v 146.883 c 0,12.066 -0.59,22.109 -1.72,30.148 -1.17,8.012 -3.24,16.102 -6.25,24.219 l 26.56,5.32 26.41,5.461 c -2.93,-8.43 -5,-17.89 -6.25,-28.281 -1.17,-10.309 -1.72,-24.449 -1.72,-42.34 v -141.41 c 0,-14.488 0.55,-25.6993 1.72,-33.5899 1.25,-7.9297 3.32,-14.8399 6.25,-20.7774 h -52.97 c 3.01,5.6992 5.08,12.5391 6.25,20.4688 1.13,8 1.72,19.2895 1.72,33.8985 z" /><path
         id="path60"
         style="fill:#849daa;fill-opacity:1;fill-rule:nonzero;stroke:none"
         d="m 2231.48,122.379 v 77.031 c 0,10 -0.58,18.949 -1.71,26.879 -1.18,8.012 -3.25,17.191 -6.25,27.5 h 52.96 c -2.93,-5.937 -5,-12.93 -6.25,-20.937 -1.17,-7.93 -1.71,-19.063 -1.71,-33.442 v -77.031 c 0,-14.488 0.54,-25.6993 1.71,-33.5899 1.25,-7.9297 3.32,-14.8399 6.25,-20.7774 h -52.96 c 3,5.6992 5.07,12.5391 6.25,20.4688 1.13,8 1.71,19.2895 1.71,33.8985 z m 17.5,208.91 c 6.96,0 12.86,-2.809 17.66,-8.437 4.88,-5.551 7.34,-12.301 7.34,-20.313 0,-8.129 -2.46,-14.961 -7.34,-20.469 -4.8,-5.55 -10.7,-8.281 -17.66,-8.281 -6.99,0 -12.93,2.731 -17.81,8.281 -4.8,5.508 -7.19,12.34 -7.19,20.469 0,8.012 2.39,14.762 7.19,20.313 4.88,5.628 10.82,8.437 17.81,8.437 z" /><path
         id="path62"
         style="fill:#849daa;fill-opacity:1;fill-rule:nonzero;stroke:none"
         d="M 2363.71,228.16 V 122.379 c 0,-14.488 0.55,-25.6993 1.72,-33.5899 1.25,-7.9297 3.32,-14.8399 6.25,-20.7774 h -52.97 c 3.01,5.6992 5.08,12.5391 6.25,20.4688 1.13,8 1.72,19.2895 1.72,33.8985 V 228.16 h -20.16 v 0.469 l 13.44,25.16 h 6.72 v 14.84 c 0,21.019 5.51,37.422 16.56,49.223 11.02,11.757 26.49,17.66 46.41,17.66 6.95,0 13.16,-0.473 18.59,-1.41 5.39,-0.864 10.86,-2.262 16.41,-4.223 l -8.6,-36.867 c -4.8,5.508 -9.37,9.527 -13.75,12.027 -4.29,2.582 -8.75,3.91 -13.43,3.91 -8.44,0 -14.77,-2.621 -18.91,-7.82 -4.18,-5.109 -6.25,-12.93 -6.25,-23.43 v -23.91 h 37.19 V 228.16 Z" /><path
         id="path64"
         style="fill:#849daa;fill-opacity:1;fill-rule:nonzero;stroke:none"
         d="m 2425.62,122.379 v 77.031 c 0,10 -0.58,18.949 -1.71,26.879 -1.18,8.012 -3.25,17.191 -6.25,27.5 h 52.96 c -2.92,-5.937 -5,-12.93 -6.24,-20.937 -1.18,-7.93 -1.72,-19.063 -1.72,-33.442 v -77.031 c 0,-14.488 0.54,-25.6993 1.72,-33.5899 1.24,-7.9297 3.32,-14.8399 6.24,-20.7774 h -52.96 c 3,5.6992 5.07,12.5391 6.25,20.4688 1.13,8 1.71,19.2895 1.71,33.8985 z m 17.5,208.91 c 6.96,0 12.86,-2.809 17.66,-8.437 4.88,-5.551 7.34,-12.301 7.34,-20.313 0,-8.129 -2.46,-14.961 -7.34,-20.469 -4.8,-5.55 -10.7,-8.281 -17.66,-8.281 -6.99,0 -12.92,2.731 -17.81,8.281 -4.8,5.508 -7.19,12.34 -7.19,20.469 0,8.012 2.39,14.762 7.19,20.313 4.89,5.628 10.82,8.437 17.81,8.437 z" /><path
         id="path66"
         style="fill:#849daa;fill-opacity:1;fill-rule:nonzero;stroke:none"
         d="m 2585.82,63.9492 c -25.62,0 -46.68,8.5117 -63.12,25.6211 -16.37,17.1917 -24.54,39.2187 -24.54,66.0897 0,29.262 7.19,53.602 21.57,72.969 14.45,19.461 32.54,29.223 54.22,29.223 h 0.31 c 21.13,0 37.42,-7.34 48.9,-22.032 11.45,-14.691 17.19,-35.621 17.19,-62.808 v -16.883 h -102.81 c 1.76,-16.789 6.64,-30.777 14.69,-42.027 10.07,-14.063 23.9,-21.0903 41.4,-21.0903 7.82,0 15.51,0.9688 23.13,2.9688 7.69,2.0703 14.61,4.9995 20.78,8.7495 l -14.69,-35.4683 c -8.12,-2.1914 -14.69,-3.6015 -19.69,-4.2226 -4.92,-0.6993 -10.7,-1.0899 -17.34,-1.0899 z m 24.22,118.1208 c -0.24,16.129 -3.24,28.481 -9.06,37.032 -5.86,8.519 -14.38,12.808 -25.63,12.808 h 0.16 c -12.42,0 -21.96,-5.269 -28.6,-15.781 -5.31,-8.43 -8.55,-19.801 -9.68,-34.059 z" /><path
         id="path68"
         style="fill:#849daa;fill-opacity:1;fill-rule:nonzero;stroke:none"
         d="m 2744.14,63.9492 c -22.93,0 -41.09,7.1016 -54.53,21.4024 -13.36,14.3789 -20,33.8284 -20,58.4374 0,32.582 9.22,59.731 27.66,81.41 18.51,21.75 41.75,32.653 69.68,32.653 7.58,0 14.61,-1.051 21.1,-3.122 v 14.532 c 0,12.066 -0.59,22.109 -1.72,30.148 -1.17,8.012 -3.21,16.102 -6.1,24.219 l 25.94,5.32 26.1,5.461 c -2.74,-7.5 -4.61,-16.48 -5.63,-26.871 -1.05,-10.309 -1.56,-24.918 -1.56,-43.75 v -141.41 c 0,-14.488 0.54,-25.6993 1.72,-33.5899 1.25,-7.9297 3.36,-14.8399 6.4,-20.7774 h -45.15 v 25.3086 l -22.03,-25 c -8.56,-3.0117 -15.86,-4.4492 -21.88,-4.3711 z m 10.31,167.6528 c -16.56,0 -28.51,-5.622 -35.78,-16.872 -7.3,-11.25 -10.94,-29.609 -10.94,-55 0,-20.242 4.38,-36.332 13.13,-48.281 8.83,-11.8787 20.82,-17.8201 35.94,-17.8201 7.26,0 14.06,1.332 20.31,4.0703 l 10.94,5.9298 V 220.82 c -8.67,7.192 -19.85,10.782 -33.6,10.782 z" /></g></g></svg>